<svg height="96" viewBox="0 0 67.733332 25.4" width="256" xmlns="http://www.w3.org/2000/svg">
  <g transform="translate(1.058334 -270.20471)">
    <path d="m7.00352 278.35637 6.5532 4.04707v1.64253l-6.5024 4.04707-.9313333-1.35467 5.7912003-3.5052-5.7912003-3.47133z" />
    <path d="m21.083322 288.75344q-2.269067 0-3.522133-1.54093-1.236134-1.55787-1.236134-4.53814 0-1.9304.677334-3.302.694266-1.3716 1.845733-2.06586 1.1684-.69427 2.573867-.69427 1.134533 0 1.9304.33867.8128.32173 1.540933 1.016l-1.100667 1.13453q-.541866-.49107-1.100666-.7112-.541867-.23707-1.2192-.23707-1.354667 0-2.2352 1.10067-.8636 1.08373-.8636 3.42053 0 2.40454.677333 3.48827.694267 1.0668 2.116667 1.0668 1.083733 0 1.9304-.49107v-3.21733h-1.9812l-.2032-1.50707h4.097866v5.67267q-.897466.508-1.845733.79587-.931333.27093-2.0828.27093z" />
    <path d="m32.70779 276.61224q1.151467 0 1.964267.28787.8128.28786 1.557867.89746l-1.016 1.2192q-1.0668-.8636-2.421467-.8636-1.4224 0-2.319866 1.10067-.897467 1.08373-.897467 3.42053 0 2.30294.880533 3.4036.880534 1.08374 2.353733 1.08374.846667 0 1.439334-.254.6096-.27094 1.202266-.74507l.948267 1.20227q-1.4224 1.38853-3.6576 1.38853-1.507066 0-2.6924-.69427-1.185333-.7112-1.862666-2.0828-.6604-1.3716-.6604-3.302 0-1.89653.677333-3.26813.694267-1.3716 1.8796-2.0828 1.185333-.7112 2.624666-.7112z" />
    <path d="m43.654926 276.61224q1.151466 0 1.964266.28787.8128.28786 1.557867.89746l-1.016 1.2192q-1.0668-.8636-2.421467-.8636-1.4224 0-2.319866 1.10067-.897467 1.08373-.897467 3.42053 0 2.30294.880533 3.4036.880534 1.08374 2.353734 1.08374.846666 0 1.439333-.254.6096-.27094 1.202267-.74507l.948266 1.20227q-1.4224 1.38853-3.6576 1.38853-1.507066 0-2.6924-.69427-1.185333-.7112-1.862666-2.0828-.6604-1.3716-.6604-3.302 0-1.89653.677333-3.26813.694267-1.3716 1.8796-2.0828 1.185333-.7112 2.624667-.7112z" />
    <path d="m59.493678 275.11397v15.58148h-10.16v-15.58148z" />
  </g>
</svg>
